<svg xmlns="http://www.w3.org/2000/svg" width="1800" height="1180" viewBox="0 0 1800 1180" fill="none">
  <defs>
    <g id="head-blue">
      <path d="M26 27c-6-12 5-22 17-14 5 3 9 8 12 14 5-7 12-13 21-15 14-3 21 11 13 24 9 8 14 20 14 34 0 25-20 40-45 40S13 95 13 70c0-17 5-31 13-43Z" fill="#F8FDFF" stroke="#73A5C8" stroke-width="5" stroke-linejoin="round"/>
      <path d="M35 68c0 3 2 5 5 5s5-2 5-5M71 68c0 3 2 5 5 5s5-2 5-5M56 76c3 3 8 3 11 0" stroke="#4B302A" stroke-width="4" stroke-linecap="round"/>
      <circle cx="32" cy="81" r="7" fill="#FFE2EA"/>
      <circle cx="84" cy="81" r="7" fill="#FFE2EA"/>
    </g>
    <g id="head-yellow">
      <path d="M31 22c-3-13 11-19 21-8 3 3 5 7 6 11 4-6 10-11 18-13 13-4 22 8 15 22 8 8 12 20 12 34 0 25-20 41-45 41S13 93 13 68c0-20 7-36 18-46Z" fill="#FFFDF3" stroke="#FFECA6" stroke-width="6" stroke-linejoin="round"/>
      <path d="M37 66c2 3 6 3 8 0M72 66c2 3 6 3 8 0M54 76c4 4 10 4 14 0" stroke="#4B302A" stroke-width="4" stroke-linecap="round"/>
      <circle cx="31" cy="79" r="7" fill="#FFE2EA"/>
      <circle cx="85" cy="79" r="7" fill="#FFE2EA"/>
    </g>
    <g id="head-pink">
      <path d="M25 27c-7-11 4-22 17-15 6 3 10 8 13 15 5-8 13-14 22-15 14-2 21 12 12 24 9 8 14 20 14 34 0 25-20 40-45 40S13 95 13 70c0-17 5-31 12-43Z" fill="#FFFDF3" stroke="#FF8EA2" stroke-width="5" stroke-linejoin="round"/>
      <path d="M35 67c2 3 6 3 9 0M72 67c2 3 6 3 9 0M56 77c3 3 8 3 11 0" stroke="#4B302A" stroke-width="4" stroke-linecap="round"/>
      <circle cx="31" cy="80" r="7" fill="#FFE2EA"/>
      <circle cx="85" cy="80" r="7" fill="#FFE2EA"/>
    </g>
    <g id="puff">
      <path d="M27 67h50c13 0 23-8 23-19 0-10-8-18-20-19-5-13-17-20-31-16-10 3-18 11-20 22-11-1-20 7-20 17 0 8 8 15 18 15Z" fill="#F7FDFF" stroke="#8CCFBA" stroke-width="5" stroke-linejoin="round"/>
      <path d="M37 49c2 3 6 3 8 0M65 49c2 3 6 3 8 0M51 58c3 3 8 3 11 0" stroke="#4B302A" stroke-width="4" stroke-linecap="round"/>
      <circle cx="31" cy="58" r="6" fill="#FFE2EA"/>
      <circle cx="80" cy="58" r="6" fill="#FFE2EA"/>
    </g>
    <g id="cloud-star">
      <path d="M31 70h52c13 0 23-8.6 23-19.2 0-9.5-8.2-17.4-19.1-18.9C82.8 18.4 70.5 10.8 56.7 13.8 45.9 16.1 37.8 24.5 35.6 35.2 23 34.2 12 42.5 12 53.2 12 62.5 20.6 70 31 70Z" fill="#F7FDFF" stroke="#73A5C8" stroke-width="5" stroke-linejoin="round"/>
      <path d="M104 10l5.5 11 12.2 1.8-8.8 8.6 2.1 12.1-11-5.8-10.9 5.8 2.1-12.1-8.8-8.6 12.2-1.8L104 10Z" fill="#FFECA6" stroke="#FF8EA2" stroke-width="4" stroke-linejoin="round"/>
    </g>
    <g id="spark">
      <path d="M24 5l5.3 13.3L43 24l-13.7 5.7L24 43l-5.3-13.3L5 24l13.7-5.7L24 5Z" fill="#FFECA6" stroke="#73A5C8" stroke-width="4" stroke-linejoin="round"/>
    </g>
    <g id="heart">
      <path d="M24 42C14 34 7 27 7 18.5 7 11.8 12.2 7 18.6 7c3.7 0 7.1 1.8 9.4 4.6C30.3 8.8 33.7 7 37.4 7 43.8 7 49 11.8 49 18.5 49 27 42 34 28 45l-4-3Z" fill="#FFE2EA" stroke="#FF8EA2" stroke-width="4" stroke-linejoin="round"/>
    </g>
  </defs>
  <rect width="1800" height="1180" fill="transparent"/>
  <g opacity=".92">
    <use href="#head-blue" x="-30" y="42" transform="rotate(-8 28 98)"/>
    <use href="#cloud-star" x="118" y="124" transform="rotate(5 184 169)"/>
    <use href="#head-yellow" x="280" y="28" transform="rotate(7 338 86)"/>
    <use href="#spark" x="425" y="160" transform="rotate(-14 449 184)"/>
    <use href="#puff" x="546" y="48" transform="rotate(-4 602 94)"/>
    <use href="#head-pink" x="712" y="154" transform="rotate(9 770 212)"/>
    <use href="#cloud-star" x="912" y="40" transform="rotate(-8 978 85)"/>
    <use href="#spark" x="1114" y="176" transform="rotate(10 1138 200)"/>
    <use href="#head-blue" x="1258" y="32" transform="rotate(5 1316 90)"/>
    <use href="#heart" x="1456" y="156" transform="rotate(-12 1484 182)"/>
    <use href="#head-pink" x="1620" y="42" transform="rotate(-5 1678 100)"/>
    <use href="#head-yellow" x="1770" y="202" transform="rotate(8 1828 260)"/>

    <use href="#heart" x="-4" y="396" transform="rotate(8 24 422)"/>
    <use href="#cloud-star" x="142" y="520" transform="rotate(-7 208 565)"/>
    <use href="#head-blue" x="356" y="404" transform="rotate(4 414 462)"/>
    <use href="#spark" x="548" y="548" transform="rotate(-6 572 572)"/>
    <use href="#puff" x="714" y="382" transform="rotate(5 770 428)"/>
    <use href="#head-yellow" x="910" y="532" transform="rotate(-9 968 590)"/>
    <use href="#spark" x="1134" y="392" transform="rotate(15 1158 416)"/>
    <use href="#cloud-star" x="1308" y="552" transform="rotate(5 1374 597)"/>
    <use href="#head-pink" x="1516" y="426" transform="rotate(-8 1574 484)"/>
    <use href="#head-blue" x="1742" y="610" transform="rotate(9 1800 668)"/>

    <use href="#spark" x="52" y="822" transform="rotate(-10 76 846)"/>
    <use href="#head-yellow" x="230" y="966" transform="rotate(-7 288 1024)"/>
    <use href="#puff" x="430" y="768" transform="rotate(8 486 814)"/>
    <use href="#cloud-star" x="642" y="962" transform="rotate(-5 708 1007)"/>
    <use href="#head-pink" x="866" y="742" transform="rotate(6 924 800)"/>
    <use href="#heart" x="1088" y="966" transform="rotate(10 1116 992)"/>
    <use href="#head-blue" x="1268" y="796" transform="rotate(-6 1326 854)"/>
    <use href="#spark" x="1474" y="952" transform="rotate(-12 1498 976)"/>
    <use href="#puff" x="1614" y="754" transform="rotate(5 1670 800)"/>
    <use href="#head-yellow" x="1760" y="982" transform="rotate(-6 1818 1040)"/>
  </g>
</svg>
